<svg width="125" height="124" viewBox="0 0 125 124" fill="none" xmlns="http://www.w3.org/2000/svg">
<path d="M62.8916 19.562C63.5672 30.7484 57.2914 40.1747 48.871 40.6378C40.4505 41.1008 33.0721 32.4025 32.3965 21.2162C31.7209 10.0298 37.9967 0.603461 46.4172 0.140444C54.8376 -0.322571 62.216 8.37567 62.8916 19.562ZM25.8931 36.764C28.3445 45.7326 24.8243 54.4607 18.0551 56.2384C11.2858 58.0161 3.80579 52.1894 1.37835 43.2273C-1.0491 34.2651 2.42319 25.5242 9.19243 23.7465C15.9617 21.9688 23.4417 27.7954 25.8691 36.7576L25.8931 36.764ZM5.42261 83.2529C27.0422 52.7975 51.6559 50.1831 61.5533 52.8351C71.4508 55.4871 91.4596 70.0581 94.955 107.243C95.1957 109.796 94.9121 112.388 94.2451 114.877L94.1425 115.26C92.4879 121.435 86.1388 125.096 79.9559 123.439C77.2 122.7 74.5578 121.633 72.0773 120.25L52.3992 109.334C48.9763 107.442 45.1419 106.415 41.2316 106.342L18.7316 105.956C15.892 105.914 13.0702 105.517 10.3143 104.779C4.13135 103.122 0.463103 96.7773 2.11775 90.6021L2.22036 90.2191C2.88735 87.7299 3.93778 85.3434 5.42261 83.2529ZM97.5223 77.5316C92.5488 72.6074 93.8642 63.2886 100.472 56.7472C107.079 50.2059 116.446 48.8935 121.42 53.8176C126.393 58.7418 125.078 68.0606 118.47 74.602C111.863 81.1433 102.496 82.4557 97.5223 77.5316ZM76.718 48.0994C69.6572 43.4882 68.9354 32.1868 75.1137 22.8369C81.292 13.4871 92.0309 9.64335 99.0918 14.2546C106.153 18.8658 106.874 30.1671 100.696 39.517C94.5178 48.8669 83.7788 52.7106 76.718 48.0994Z" fill="#ADD35A"/>
</svg>
